<mxfile host="app.diagrams.net" modified="2024-01-24T03:03:51.085Z" agent="Mozilla/5.0 (Windows NT 10.0; Win64; x64) AppleWebKit/537.36 (KHTML, like Gecko) Chrome/120.0.0.0 Safari/537.36" version="23.0.0" etag="NnDJyKjkUjame6liimiq" type="github">
  <diagram name="Page-1" id="dxBeZ8ypcwGgRa8_q4if">
    <mxGraphModel>
      <root>
        <mxCell id="0" />
        <mxCell id="1" parent="0" />
      </root>
    </mxGraphModel>
  </diagram>
</mxfile>
